<svg width="36" height="36" viewBox="0 0 36 36" fill="none" xmlns="http://www.w3.org/2000/svg">
<g clip-path="url(#clip0_2_636)">
<path d="M18 35.9997C27.9411 35.9997 36 27.9408 36 17.9997C36 8.05859 27.9411 -0.000289917 18 -0.000289917C8.05884 -0.000289917 -3.05176e-05 8.05859 -3.05176e-05 17.9997C-3.05176e-05 27.9408 8.05884 35.9997 18 35.9997Z" fill="#007AB9"/>
<path d="M28.7548 19.4481V26.8692H24.4523V19.9455C24.4523 18.207 23.8311 17.0198 22.2733 17.0198C21.0845 17.0198 20.3783 17.8191 20.0664 18.593C19.9531 18.8696 19.9239 19.2537 19.9239 19.6416V26.8688H15.6211C15.6211 26.8688 15.6788 15.1424 15.6211 13.9286H19.9242V15.7623C19.9156 15.7768 19.9034 15.7909 19.8957 15.8047H19.9242V15.7623C20.496 14.8825 21.5157 13.6247 23.8019 13.6247C26.6326 13.6247 28.7548 15.4742 28.7548 19.4481ZM11.12 7.69093C9.64813 7.69093 8.68521 8.65706 8.68521 9.92641C8.68521 11.1688 9.62022 12.1629 11.0635 12.1629H11.0914C12.5921 12.1629 13.5252 11.1688 13.5252 9.92641C13.4966 8.65706 12.5921 7.69093 11.12 7.69093ZM8.94094 26.8692H13.2422V13.9286H8.94094V26.8692Z" fill="#F1F2F2"/>
</g>
<defs>
<clipPath id="clip0_2_636">
<rect width="36" height="36" fill="white"/>
</clipPath>
</defs>
</svg>
